<svg xmlns="http://www.w3.org/2000/svg" width="256" height="256" viewBox="0 0 256 256" role="img" aria-label="吾郎の立ち絵">
  <rect width="256" height="256" fill="#e9edf5"/>
  <ellipse cx="128" cy="118" rx="62" ry="70" fill="#e9c9a6"/>
  <ellipse cx="88" cy="96" rx="20" ry="28" fill="#6f6f6f" opacity="0.55"/>
  <ellipse cx="168" cy="96" rx="20" ry="28" fill="#6f6f6f" opacity="0.35"/>
  <path d="M82 92c8-35 30-44 46-44 18 0 38 11 44 37" fill="#8f7b63" opacity="0.5"/>
  <rect x="88" y="104" width="36" height="20" rx="7" fill="none" stroke="#222" stroke-width="4"/>
  <rect x="132" y="104" width="36" height="20" rx="7" fill="none" stroke="#222" stroke-width="4"/>
  <rect x="124" y="112" width="8" height="4" fill="#222"/>
  <line x1="88" y1="114" x2="68" y2="106" stroke="#222" stroke-width="4"/>
  <line x1="168" y1="114" x2="188" y2="107" stroke="#222" stroke-width="4"/>
  <circle cx="106" cy="114" r="3" fill="#222"/>
  <circle cx="150" cy="114" r="3" fill="#222"/>
  <path d="M110 150q18 12 36 0" fill="none" stroke="#9a5f45" stroke-width="4"/>
  <path d="M102 166q26 30 52 0" fill="none" stroke="#6f3f2e" stroke-width="5" stroke-linecap="round"/>
  <rect x="82" y="180" width="92" height="52" rx="20" fill="#1f2937"/>
</svg>
